<?xml version="1.0" encoding="UTF-8" standalone="no"?>
<!-- Created with Inkscape (http://www.inkscape.org/) -->

<svg
   xmlns:dc="http://purl.org/dc/elements/1.1/"
   xmlns:cc="http://creativecommons.org/ns#"
   xmlns:rdf="http://www.w3.org/1999/02/22-rdf-syntax-ns#"
   xmlns:svg="http://www.w3.org/2000/svg"
   xmlns="http://www.w3.org/2000/svg"
   xmlns:sodipodi="http://sodipodi.sourceforge.net/DTD/sodipodi-0.dtd"
   xmlns:inkscape="http://www.inkscape.org/namespaces/inkscape"
   width="210mm"
   height="297mm"
   viewBox="0 0 210 297"
   version="1.1"
   id="svg8"
   inkscape:version="0.92.4 (5da689c313, 2019-01-14)"
   sodipodi:docname="caps.svg">
  <defs
     id="defs2" />
  <sodipodi:namedview
     id="base"
     pagecolor="#ffffff"
     bordercolor="#666666"
     borderopacity="1.0"
     inkscape:pageopacity="0.0"
     inkscape:pageshadow="2"
     inkscape:zoom="0.98994949"
     inkscape:cx="395.95377"
     inkscape:cy="548.18795"
     inkscape:document-units="mm"
     inkscape:current-layer="layer1"
     showgrid="false"
     inkscape:window-width="3840"
     inkscape:window-height="2080"
     inkscape:window-x="-11"
     inkscape:window-y="-11"
     inkscape:window-maximized="1" />
  <metadata
     id="metadata5">
    <rdf:RDF>
      <cc:Work
         rdf:about="">
        <dc:format>image/svg+xml</dc:format>
        <dc:type
           rdf:resource="http://purl.org/dc/dcmitype/StillImage" />
        <dc:title></dc:title>
      </cc:Work>
    </rdf:RDF>
  </metadata>
  <g
     inkscape:label="Layer 1"
     inkscape:groupmode="layer"
     id="layer1">
    <path
       style="fill:#4fff55;stroke-width:0.22022589"
       d="m 95.108997,245.07087 c -1.48253,-0.1594 -2.829973,-0.34141 -2.994323,-0.40448 -0.16435,-0.063 -0.86258,-0.95327 -1.551641,-1.97823 -3.780167,-5.62298 -9.351869,-9.64437 -14.904316,-10.75724 -1.716503,-0.34403 -3.136582,-0.46136 -5.60268,-0.46291 -3.69489,-0.002 -5.765868,0.33716 -8.478694,1.38977 -0.908432,0.35248 -1.985085,0.64133 -2.392554,0.64189 -0.965952,0.002 -6.377545,-2.94413 -6.633917,-3.61075 -0.09782,-0.25433 -0.346871,-1.45343 -0.553465,-2.66468 -0.731055,-4.28618 -2.527881,-8.55738 -4.756679,-11.307 -2.013664,-2.48422 -6.655616,-5.77481 -10.132914,-7.18302 -2.333586,-0.94504 -4.46199,-1.37783 -7.727556,-1.5713 l -2.576699,-0.15267 -2.00965,-2.62225 c -2.339174,-3.05222 -2.40823,-3.34222 -1.484228,-6.23358 1.197566,-3.74738 1.358951,-8.17743 0.417176,-11.45174 -0.552903,-1.92231 -2.625454,-6.33892 -3.897026,-8.30457 -2.081528,-3.21771 -5.743551,-6.4001 -9.205036,-7.9994 -0.8865583,-0.40962 -1.7120703,-0.87286 -1.8344757,-1.02943 -0.3456228,-0.44208 -1.608774,-5.77984 -1.608774,-6.79825 0,-0.77215 0.1541928,-1.08044 1.0217552,-2.04287 2.5890845,-2.87221 4.7550935,-6.72867 5.6023235,-9.97464 0.373203,-1.42983 0.452247,-2.41692 0.455955,-5.69376 0.0038,-3.51625 -0.05724,-4.20215 -0.541978,-6.07159 -0.879654,-3.39258 -2.595708,-6.48162 -5.1423549,-9.25665 -1.2881466,-1.40367 -1.3957008,-1.59832 -1.3957008,-2.52612 0,-0.86165 0.3780158,-2.64065 1.3419331,-6.31543 0.1191467,-0.45421 0.3252219,-0.82584 0.4579401,-0.82584 0.6197679,0 4.6408225,-2.13164 6.0350435,-3.19928 2.654782,-2.03295 4.360773,-4.2345 6.309519,-8.14235 2.568534,-5.15071 3.154436,-7.38698 2.971502,-11.34164 -0.08248,-1.783096 -0.296057,-3.184331 -0.721698,-4.734858 -0.3325,-1.211234 -0.647859,-2.71501 -0.700784,-3.341716 l -0.09624,-1.139463 2.008227,-2.659434 2.008227,-2.659434 h 1.874422 c 4.766724,0 10.200191,-2.101132 15.598781,-6.032071 3.827027,-2.786624 7.03882,-8.986165 7.941921,-15.32984 0.324036,-2.276089 0.108335,-2.043071 3.346483,-3.615151 3.311275,-1.607582 3.082295,-1.586326 5.856991,-0.543678 4.634181,1.741386 9.736933,1.916501 15.262997,0.523787 5.041497,-1.270586 10.437519,-5.376366 13.818645,-10.514471 0.767919,-1.16696 1.417047,-1.928907 1.645834,-1.931873 0.20778,-0.0027 1.62342,-0.13681 3.145859,-0.298039 1.522439,-0.161229 3.061082,-0.25014 3.41919,-0.197579 0.442225,0.06491 1.285204,0.697106 2.627472,1.970494 4.47887,4.249057 9.78624,6.822438 14.56575,7.062478 5.06181,0.254221 11.19183,-1.501798 15.88137,-4.549427 1.60294,-1.041713 1.4833,-1.048641 5.99456,0.347113 2.37954,0.736211 3.30339,1.200614 3.30339,1.66055 0,0.537001 2.37658,5.130457 3.62345,7.003385 1.59783,2.400134 4.59521,5.393543 6.59323,6.584498 1.58035,0.941999 4.4226,2.076087 7.03656,2.807677 1.60846,0.450169 2.68901,0.587118 5.33964,0.67675 2.0611,0.0697 3.75969,0.01874 4.47274,-0.134181 1.96521,-0.421467 2.6293,-0.180057 4.91573,1.786992 1.12396,0.966954 2.24175,1.948523 2.48401,2.181267 0.40739,0.391403 0.44183,0.724389 0.45884,4.43617 0.036,7.85115 1.52273,11.285394 7.53846,17.413269 3.21428,3.274189 6.56531,5.222587 10.63743,6.184945 1.21324,0.28673 2.2376,0.55603 2.27636,0.59845 0.0387,0.0423 0.72588,1.3888 1.52694,2.99197 1.7149,3.43204 1.78049,3.9465 0.71581,5.61463 -1.13289,1.77497 -1.7929,3.18321 -2.45338,5.23464 -0.78339,2.4332 -0.99419,6.54429 -0.45732,8.91914 0.19167,0.84787 0.5541,2.5326 0.80539,3.74384 1.10008,5.30239 3.85632,9.39139 8.58825,12.74103 l 1.63529,1.15759 0.0546,3.73165 c 0.0301,2.0524 -0.0195,3.83818 -0.11011,3.9684 -0.0906,0.13021 -0.80884,0.66507 -1.59615,1.18857 -0.7873,0.5235 -2.32338,1.85843 -3.41349,2.96651 -3.14159,3.19335 -4.28629,5.60287 -5.60346,11.79476 -1.31354,6.17483 -0.66858,10.43345 2.33469,15.41582 0.59996,0.99531 0.99656,1.91991 0.99802,2.32662 0.002,0.68987 -2.6715,6.31237 -3.13965,6.60171 -0.13717,0.0848 -1.07217,0.33393 -2.07777,0.55368 -3.68532,0.80535 -7.29371,2.82593 -10.47946,5.86814 -6.00016,5.72984 -8.24658,11.22369 -7.81713,19.11759 0.109,2.00351 0.0753,2.72984 -0.13912,2.99444 -0.15565,0.19215 -1.3117,1.17262 -2.56897,2.17884 l -2.28598,1.8295 -2.99945,-0.26056 c -4.61365,-0.40078 -8.34402,0.14791 -13.3032,1.95673 -3.72422,1.35839 -7.5718,4.47975 -9.97633,8.09333 -1.17021,1.75863 -3.60803,6.48975 -3.61241,7.01065 -0.002,0.13263 -0.17545,0.39575 -0.38741,0.5847 -0.46338,0.41308 -5.88306,2.14719 -6.71067,2.14719 -0.3214,0 -1.63495,-0.58423 -2.919,-1.29829 -6.29936,-3.50309 -13.98381,-4.67433 -19.20128,-2.92661 -3.90448,1.3079 -7.1573,3.28912 -10.37816,6.32111 -2.366207,2.22743 -2.287395,2.2056 -6.375392,1.76608 z m 0.603353,-36.9686 c 8.28249,-1.9724 15.95179,-6.44029 25.48744,-14.84815 5.63733,-4.9706 14.88639,-15.05402 18.21776,-19.86118 l 0.56712,-0.81837 -1.12154,-2.13037 c -0.61683,-1.17171 -1.18822,-2.12754 -1.26975,-2.12405 -0.0815,0.004 -1.6843,1.50345 -3.56172,3.33326 -12.07633,11.77008 -24.45384,20.00302 -32.88923,21.87636 -2.44824,0.54371 -7.524887,0.37531 -9.72448,-0.32256 -10.339021,-3.28033 -16.404758,-14.8974 -15.49911,-29.68384 0.701771,-11.45778 5.069432,-23.3156 13.98292,-37.96245 9.028819,-14.83634 22.02621,-28.646321 30.23939,-32.129903 2.76121,-1.171164 3.79846,-1.369358 6.59164,-1.259523 3.01009,0.11836 4.58511,0.552214 5.69408,1.568514 0.64744,0.593337 0.79879,0.904765 0.88728,1.825841 0.15382,1.600782 -0.37399,3.188443 -2.39469,7.203251 -2.36772,4.70429 -3.09095,6.88748 -3.21912,9.71746 -0.13586,2.9998 0.34157,4.30762 2.25106,6.16632 3.41204,3.32129 7.44532,4.64363 11.44763,3.7532 6.22387,-1.38468 11.63111,-6.97804 13.49884,-13.96342 0.51199,-1.91487 0.56781,-2.52083 0.57094,-6.1966 0.004,-4.336369 -0.22319,-6.373734 -1.07179,-9.624539 -0.80781,-3.094504 -1.8359,-4.931929 -3.93252,-7.028325 -1.51516,-1.514989 -2.14048,-1.959416 -4.1002,-2.914113 -3.79515,-1.848856 -7.00918,-2.453911 -13.04081,-2.454993 -7.41726,-0.0013 -12.78272,1.302174 -20.3387,4.941161 -5.61867,2.705963 -10.14325,5.487871 -15.840965,9.739717 -13.215752,9.862052 -25.670057,23.694152 -33.577214,37.291802 -9.313363,16.01586 -12.624475,31.85209 -9.899864,47.34857 1.366429,7.77168 3.28063,12.67211 6.556116,16.78391 2.3219,2.91475 4.780832,4.95481 8.678132,7.19987 4.032748,2.32306 7.147249,3.50621 11.615774,4.41262 3.456748,0.70118 5.466825,0.87013 9.359594,0.78671 2.804884,-0.0601 3.995287,-0.18783 5.835987,-0.62618 z"
       id="path5746"
       inkscape:connector-curvature="0" />
  </g>
</svg>
