<?xml version="1.0" encoding="UTF-8" standalone="no"?>
<!-- Created with Inkscape (http://www.inkscape.org/) -->

<svg
   xmlns:dc="http://purl.org/dc/elements/1.1/"
   xmlns:cc="http://creativecommons.org/ns#"
   xmlns:rdf="http://www.w3.org/1999/02/22-rdf-syntax-ns#"
   xmlns:svg="http://www.w3.org/2000/svg"
   xmlns="http://www.w3.org/2000/svg"
   xmlns:sodipodi="http://sodipodi.sourceforge.net/DTD/sodipodi-0.dtd"
   xmlns:inkscape="http://www.inkscape.org/namespaces/inkscape"
   width="210mm"
   height="297mm"
   viewBox="0 0 210 297"
   version="1.1"
   id="svg822"
   inkscape:version="0.92.4 (5da689c313, 2019-01-14)"
   sodipodi:docname="card.svg">
  <defs
     id="defs816" />
  <sodipodi:namedview
     id="base"
     pagecolor="#ffffff"
     bordercolor="#666666"
     borderopacity="1.0"
     inkscape:pageopacity="0.0"
     inkscape:pageshadow="2"
     inkscape:zoom="1.979899"
     inkscape:cx="119.22885"
     inkscape:cy="586.09463"
     inkscape:document-units="mm"
     inkscape:current-layer="layer1"
     showgrid="false"
     inkscape:window-width="3840"
     inkscape:window-height="2080"
     inkscape:window-x="-11"
     inkscape:window-y="-11"
     inkscape:window-maximized="1"
     inkscape:snap-smooth-nodes="true" />
  <metadata
     id="metadata819">
    <rdf:RDF>
      <cc:Work
         rdf:about="">
        <dc:format>image/svg+xml</dc:format>
        <dc:type
           rdf:resource="http://purl.org/dc/dcmitype/StillImage" />
        <dc:title></dc:title>
      </cc:Work>
    </rdf:RDF>
  </metadata>
  <g
     inkscape:label="Layer 1"
     inkscape:groupmode="layer"
     id="layer1">
    <path
       style="opacity:1;fill:#4fff55;fill-opacity:1;stroke:#9398f1;stroke-width:0;stroke-linecap:round;stroke-linejoin:round;stroke-miterlimit:4;stroke-dasharray:none;stroke-opacity:1"
       d="M 155.88672 173.30078 C 120.00303 173.30078 91.115234 202.21406 91.115234 238.12891 L 91.115234 847.83594 C 91.115234 883.75078 120.00303 912.66406 155.88672 912.66406 L 550.83008 912.66406 C 586.71378 912.66406 615.60352 883.75078 615.60352 847.83594 L 615.60352 238.12891 C 615.60352 202.21406 586.71378 173.30078 550.83008 173.30078 L 155.88672 173.30078 z M 335.08008 219.34766 C 335.4748 219.3414 335.76983 219.3493 335.93164 219.37305 C 336.7309 219.49036 338.25566 220.63407 340.68164 222.93555 C 348.77661 230.61516 358.36752 235.26538 367.00586 235.69922 C 376.15442 236.15869 387.23521 232.98475 395.71094 227.47656 C 398.60804 225.5938 398.39141 225.58087 406.54492 228.10352 C 410.84563 229.43412 412.51563 230.27419 412.51562 231.10547 C 412.51562 232.07603 416.8109 240.3786 419.06445 243.76367 C 421.95232 248.1016 427.36931 253.51157 430.98047 255.66406 C 433.83674 257.3666 438.97288 259.41603 443.69727 260.73828 C 446.60435 261.5519 448.55894 261.79894 453.34961 261.96094 C 457.07478 262.08691 460.14485 261.99513 461.43359 261.71875 C 464.98545 260.957 466.18398 261.39404 470.31641 264.94922 C 472.34782 266.69686 474.36879 268.46998 474.80664 268.89062 C 475.54294 269.59803 475.60598 270.19965 475.63672 276.9082 C 475.70178 291.09813 478.38908 297.30552 489.26172 308.38086 C 495.07111 314.29853 501.12651 317.82121 508.48633 319.56055 C 510.6791 320.07877 512.53151 320.56397 512.60156 320.64062 C 512.67151 320.71708 513.91352 323.15131 515.36133 326.04883 C 518.46078 332.25179 518.57857 333.18234 516.6543 336.19727 C 514.60675 339.40529 513.41443 341.95051 512.2207 345.6582 C 510.80483 350.05589 510.42421 357.48511 511.39453 361.77734 C 511.74095 363.30976 512.39544 366.35576 512.84961 368.54492 C 514.83786 378.1283 519.81875 385.51823 528.37109 391.57227 L 531.32617 393.66406 L 531.42578 400.4082 C 531.48018 404.11765 531.39033 407.34472 531.22656 407.58008 C 531.06281 407.81542 529.76476 408.78236 528.3418 409.72852 C 526.91886 410.67467 524.1421 413.08713 522.17188 415.08984 C 516.49386 420.86141 514.42553 425.21717 512.04492 436.4082 C 509.67087 447.5684 510.83566 455.26455 516.26367 464.26953 C 517.34802 466.06842 518.06572 467.73953 518.06836 468.47461 C 518.07197 469.72146 513.24065 479.88331 512.39453 480.40625 C 512.14661 480.55951 510.45616 481.01103 508.63867 481.4082 C 501.97794 482.86377 495.45509 486.51528 489.69727 492.01367 C 478.85276 502.36961 474.79414 512.29922 475.57031 526.56641 C 475.76732 530.18749 475.7059 531.50029 475.31836 531.97852 C 475.03704 532.3258 472.94813 534.0974 470.67578 535.91602 L 466.54297 539.22266 L 461.12305 538.75195 C 452.78448 538.0276 446.04119 539.01986 437.07812 542.28906 C 430.3471 544.74417 423.39274 550.38494 419.04688 556.91602 C 416.93187 560.09451 412.52745 568.64448 412.51953 569.58594 C 412.51592 569.82565 412.20145 570.30108 411.81836 570.64258 C 410.98086 571.38917 401.18525 574.52344 399.68945 574.52344 C 399.10856 574.52344 396.73481 573.4683 394.41406 572.17773 C 383.0288 565.84636 369.14083 563.7299 359.71094 566.88867 C 352.6541 569.25253 346.77441 572.83258 340.95312 578.3125 C 336.67652 582.33829 336.81819 582.30023 329.42969 581.50586 C 326.75021 581.21776 324.31657 580.88743 324.01953 580.77344 C 323.72249 580.65957 322.46023 579.0517 321.21484 577.19922 C 314.38268 567.03642 304.31265 559.76723 294.27734 557.75586 C 291.17498 557.13407 288.60752 556.92272 284.15039 556.91992 C 277.47236 556.91631 273.72926 557.52919 268.82617 559.43164 C 267.1843 560.0687 265.2384 560.59078 264.50195 560.5918 C 262.75613 560.59541 252.97507 555.27123 252.51172 554.06641 C 252.33496 553.60674 251.8851 551.43918 251.51172 549.25 C 250.19042 541.50329 246.94231 533.78403 242.91406 528.81445 C 239.27462 524.32455 230.88633 518.37719 224.60156 515.83203 C 220.38392 514.124 216.53684 513.34186 210.63477 512.99219 L 205.97656 512.71484 L 202.3457 507.97656 C 198.11794 502.46008 197.9921 501.93474 199.66211 496.70898 C 201.82656 489.93609 202.11814 481.9296 200.41602 476.01172 C 199.4167 472.5374 195.67124 464.55461 193.37305 461.00195 C 189.61095 455.18636 182.99252 449.43545 176.73633 446.54492 C 175.13401 445.80459 173.64114 444.96657 173.41992 444.68359 C 172.79526 443.88459 170.51367 434.23713 170.51367 432.39648 C 170.51367 431.00092 170.79137 430.44454 172.35938 428.70508 C 177.03879 423.51394 180.95312 416.5444 182.48438 410.67773 C 183.15889 408.0935 183.30189 406.30918 183.30859 400.38672 C 183.31582 394.03156 183.20625 392.79088 182.33008 389.41211 C 180.74023 383.28047 177.63789 377.6991 173.03516 372.68359 C 170.70701 370.14664 170.51367 369.79406 170.51367 368.11719 C 170.51367 366.55987 171.19729 363.34481 172.93945 356.70312 C 173.15478 355.88221 173.52576 355.21094 173.76562 355.21094 C 174.88578 355.21094 182.15396 351.35735 184.67383 349.42773 C 189.47199 345.75344 192.55602 341.77386 196.07812 334.71094 C 200.72041 325.4017 201.77791 321.36042 201.44727 314.21289 C 201.29816 310.99019 200.91382 308.45863 200.14453 305.65625 C 199.54358 303.46711 198.9726 300.74791 198.87695 299.61523 L 198.70312 297.55664 L 202.33203 292.75 L 205.96289 287.94336 L 209.34961 287.94336 C 217.96483 287.94336 227.78573 284.14567 237.54297 277.04102 C 244.45981 272.00456 250.26425 260.79935 251.89648 249.33398 C 252.48213 245.22025 252.09278 245.64211 257.94531 242.80078 C 263.93002 239.89529 263.51636 239.93391 268.53125 241.81836 C 276.90692 244.96569 286.12954 245.28082 296.11719 242.76367 C 305.22904 240.46725 314.98087 233.04817 321.0918 223.76172 C 322.47971 221.65259 323.6529 220.27489 324.06641 220.26953 C 324.44194 220.26465 327.00034 220.02187 329.75195 219.73047 C 331.81566 219.51192 333.89592 219.36643 335.08008 219.34766 z M 187.50586 631.08008 L 518.5918 631.08008 C 554.47549 631.08008 583.36328 659.99338 583.36328 695.9082 L 583.36328 820.30469 C 583.36328 856.21951 554.47549 885.13281 518.5918 885.13281 L 187.50586 885.13281 C 151.62217 885.13281 122.73438 856.21951 122.73438 820.30469 L 122.73438 695.9082 C 122.73438 659.99338 151.62217 631.08008 187.50586 631.08008 z "
       transform="scale(0.26458333)"
       id="rect1370" />
    <g
       id="layer1-4"
       inkscape:label="Layer 1"
       transform="matrix(0.47819968,0,0,0.47819968,-79.864584,29.928446)"
       style="fill:#282828;fill-opacity:1" />
  </g>
</svg>
